<?xml version="1.0" standalone="no"?>
<svg xmlns:xlink="http://www.w3.org/1999/xlink" id="wave" style="transform:rotate(0deg); transition: 0.3s" viewBox="0 0 1440 310" version="1.1" xmlns="http://www.w3.org/2000/svg"><defs><linearGradient id="sw-gradient-0" x1="0" x2="0" y1="1" y2="0"><stop stop-color="rgba(135, 57, 249, 1)" offset="0%"/><stop stop-color="rgba(55, 185, 241, 1)" offset="100%"/></linearGradient></defs><path style="transform:translate(0, 0px); opacity:1" fill="url(#sw-gradient-0)" d="M0,31L14.1,62C28.2,93,56,155,85,175.7C112.9,196,141,176,169,170.5C197.6,165,226,176,254,165.3C282.4,155,311,124,339,103.3C367.1,83,395,72,424,62C451.8,52,480,41,508,56.8C536.5,72,565,114,593,124C621.2,134,649,114,678,87.8C705.9,62,734,31,762,41.3C790.6,52,819,103,847,118.8C875.3,134,904,114,932,124C960,134,988,176,1016,175.7C1044.7,176,1073,134,1101,134.3C1129.4,134,1158,176,1186,160.2C1214.1,145,1242,72,1271,67.2C1298.8,62,1327,124,1355,134.3C1383.5,145,1412,103,1440,113.7C1468.2,124,1496,186,1525,186C1552.9,186,1581,124,1609,82.7C1637.6,41,1666,21,1694,15.5C1722.4,10,1751,21,1779,51.7C1807.1,83,1835,134,1864,175.7C1891.8,217,1920,248,1948,248C1976.5,248,2005,217,2019,201.5L2032.9,186L2032.9,310L2018.8,310C2004.7,310,1976,310,1948,310C1920,310,1892,310,1864,310C1835.3,310,1807,310,1779,310C1750.6,310,1722,310,1694,310C1665.9,310,1638,310,1609,310C1581.2,310,1553,310,1525,310C1496.5,310,1468,310,1440,310C1411.8,310,1384,310,1355,310C1327.1,310,1299,310,1271,310C1242.4,310,1214,310,1186,310C1157.6,310,1129,310,1101,310C1072.9,310,1045,310,1016,310C988.2,310,960,310,932,310C903.5,310,875,310,847,310C818.8,310,791,310,762,310C734.1,310,706,310,678,310C649.4,310,621,310,593,310C564.7,310,536,310,508,310C480,310,452,310,424,310C395.3,310,367,310,339,310C310.6,310,282,310,254,310C225.9,310,198,310,169,310C141.2,310,113,310,85,310C56.5,310,28,310,14,310L0,310Z"/><defs><linearGradient id="sw-gradient-1" x1="0" x2="0" y1="1" y2="0"><stop stop-color="rgba(135, 57, 249, 1)" offset="0%"/><stop stop-color="rgba(55, 185, 241, 1)" offset="100%"/></linearGradient></defs><path style="transform:translate(0, 50px); opacity:0.9" fill="url(#sw-gradient-1)" d="M0,279L14.1,268.7C28.2,258,56,238,85,217C112.9,196,141,176,169,144.7C197.6,114,226,72,254,77.5C282.4,83,311,134,339,139.5C367.1,145,395,103,424,72.3C451.8,41,480,21,508,46.5C536.5,72,565,145,593,186C621.2,227,649,238,678,217C705.9,196,734,145,762,144.7C790.6,145,819,196,847,191.2C875.3,186,904,124,932,87.8C960,52,988,41,1016,31C1044.7,21,1073,10,1101,25.8C1129.4,41,1158,83,1186,124C1214.1,165,1242,207,1271,191.2C1298.8,176,1327,103,1355,62C1383.5,21,1412,10,1440,20.7C1468.2,31,1496,62,1525,77.5C1552.9,93,1581,93,1609,87.8C1637.6,83,1666,72,1694,62C1722.4,52,1751,41,1779,62C1807.1,83,1835,134,1864,129.2C1891.8,124,1920,62,1948,67.2C1976.5,72,2005,145,2019,180.8L2032.9,217L2032.9,310L2018.8,310C2004.7,310,1976,310,1948,310C1920,310,1892,310,1864,310C1835.3,310,1807,310,1779,310C1750.6,310,1722,310,1694,310C1665.9,310,1638,310,1609,310C1581.2,310,1553,310,1525,310C1496.5,310,1468,310,1440,310C1411.8,310,1384,310,1355,310C1327.1,310,1299,310,1271,310C1242.4,310,1214,310,1186,310C1157.6,310,1129,310,1101,310C1072.9,310,1045,310,1016,310C988.2,310,960,310,932,310C903.5,310,875,310,847,310C818.8,310,791,310,762,310C734.1,310,706,310,678,310C649.4,310,621,310,593,310C564.7,310,536,310,508,310C480,310,452,310,424,310C395.3,310,367,310,339,310C310.6,310,282,310,254,310C225.9,310,198,310,169,310C141.2,310,113,310,85,310C56.5,310,28,310,14,310L0,310Z"/></svg>